<?xml version="1.0" encoding="UTF-8" standalone="no"?>
<!-- Created with Inkscape (http://www.inkscape.org/) -->

<svg
   xmlns:dc="http://purl.org/dc/elements/1.1/"
   xmlns:cc="http://creativecommons.org/ns#"
   xmlns:rdf="http://www.w3.org/1999/02/22-rdf-syntax-ns#"
   xmlns:svg="http://www.w3.org/2000/svg"
   xmlns="http://www.w3.org/2000/svg"
   version="1.1"
   width="1024"
   height="175"
   viewBox="0 0 1024 175"
   id="Layer_1"
   xml:space="preserve"><metadata
     id="metadata73"><rdf:RDF><cc:Work
         rdf:about=""><dc:format>image/svg+xml</dc:format><dc:type
           rdf:resource="http://purl.org/dc/dcmitype/StillImage" /><dc:title></dc:title></cc:Work></rdf:RDF></metadata><defs
     id="defs71" /><g
     transform="translate(0,-593)"
     id="g3"><path
       d="m 676.58,671.472 1.562,-1.445 2.104,-1.064 c 0,0 4.951,-1.622 5.886,-0.513 -0.917,-1.682 -2.964,-2.508 -4.974,-2.983 -3.755,-0.887 -7.52,1.438 -8.406,5.193 -0.527,2.235 0.527,3.998 1.902,5.632 -0.8,-1.463 1.926,-4.82 1.926,-4.82 z"
       id="path5"
       style="fill:#ffffff" /><path
       d="m 669.821,691.639 1.562,-1.445 2.104,-1.064 c 0,0 4.951,-1.622 5.886,-0.513 -0.917,-1.682 -2.964,-2.508 -4.974,-2.983 -3.755,-0.887 -7.52,1.438 -8.406,5.193 -0.527,2.235 0.527,3.998 1.902,5.632 -0.799,-1.463 1.926,-4.82 1.926,-4.82 z"
       id="path7"
       style="fill:#ffffff" /><path
       d="m -26.854,735.788 c 0,60.316 239.741,109.212 535.478,109.212 295.736,0 535.479,-48.896 535.479,-109.212 0,-60.316 -239.743,-109.212 -535.479,-109.212 -240.546,0 -444.047,32.349 -511.624,76.88 -15.506,10.217 -23.854,21.076 -23.854,32.332 z"
       id="path9"
       style="fill:#7017af;stroke:#000000;stroke-width:2;stroke-miterlimit:10" /><path
       d="m -26.854,774.788 c 0,60.316 239.741,109.212 535.478,109.212 295.736,0 535.479,-48.896 535.479,-109.212 0,-60.316 -239.743,-109.212 -535.479,-109.212 -240.546,0 -444.047,32.349 -511.624,76.88 -15.506,10.217 -23.854,21.076 -23.854,32.332 z"
       id="path11"
       style="fill:#8f81a5" /><path
       d="M 1018,722.519"
       id="path13"
       style="fill:#bdccd4;stroke:#000000;stroke-width:2;stroke-miterlimit:10" /><path
       d="M 15,738.445"
       id="path15"
       style="fill:#bdccd4;stroke:#000000;stroke-width:2;stroke-miterlimit:10" /><path
       d="m 66.146,785.011 c 0,0 -47.146,-73.667 268.079,-97.867 14.601,2.196 14.775,35.92 14.775,35.92 0,0 -145.813,29.256 -183.333,64.736 -24.417,23.092 -99.521,-2.789 -99.521,-2.789 z"
       id="path17"
       style="fill:#ffff00;stroke:#000000;stroke-width:2;stroke-miterlimit:10" /><path
       d="m 912.038,777.764 c 0,0 31.035,-43.854 -161.693,-67.715 -9.022,0.93 -10.095,21.618 -10.095,21.618 0,0 88.635,22.12 110.642,44.963 14.323,14.866 61.146,1.134 61.146,1.134 z"
       id="path19"
       style="fill:#ffffff;stroke:#000000;stroke-width:2;stroke-miterlimit:10" /><path
       d="m 334.229,625.76 c 0,0 178.258,-60.422 333.542,0 -33.079,103.221 -40.326,147.095 -40.326,147.095 L 374.672,772.684 334.229,625.76 z"
       id="path21"
       style="fill:#bdccd4;stroke:#000000;stroke-width:2;stroke-miterlimit:10" /><path
       d="m 362.592,635.127 c 0,0 151.22,-50.086 282.952,0 -28.062,85.561 -34.21,121.927 -34.21,121.927 L 396.9,756.911 362.592,635.127 z"
       id="screen"
       style="stroke:#000000;stroke-width:2;stroke-miterlimit:10" /><path
       d="m 346.107,702.009 c 0,0 -229.396,32.987 -243.586,92.32"
       id="path25"
       style="fill:none;stroke:#000000;stroke-width:2;stroke-miterlimit:10" /><path
       d="m 315.537,688.848 c 0,0 15.451,22.315 11.124,39.567"
       id="path27"
       style="fill:none;stroke:#000000;stroke-width:2;stroke-miterlimit:10" /><path
       d="m 272.713,693.201 c 0,0 17.301,29.747 14.461,45.106"
       id="path29"
       style="fill:none;stroke:#000000;stroke-width:2;stroke-miterlimit:10" /><path
       d="m 222.198,700.174 c 0,0 21.468,31.535 16.802,51.681"
       id="path31"
       style="fill:none;stroke:#000000;stroke-width:2;stroke-miterlimit:10" /><path
       d="m 163.601,712.073 c 0,0 32.434,32.42 31.917,58.007"
       id="path33"
       style="fill:none;stroke:#000000;stroke-width:2;stroke-miterlimit:10" /><path
       d="m 90.632,738.445 c 0,0 51.69,19.218 65.69,53.884"
       id="path35"
       style="fill:none;stroke:#000000;stroke-width:2;stroke-miterlimit:10" /><path
       d="m 665.061,704.509 c 0,0 37.216,2.601 52.289,10.138 -4.348,9.855 -5.138,19.872 -5.138,19.872 0,0 -46.525,-12.219 -49.666,-11.7 -3.129,0.516 -3.296,-15.375 2.515,-18.31 z"
       id="path37"
       style="fill:#ff0000;stroke:#000000;stroke-width:2;stroke-miterlimit:10" /><path
       d="m 665.799,700.125 c 0,0 2.878,-14.171 11.623,-14.981 8.745,-0.81 52.513,4.312 54.154,4.999 -4.181,3.455 -11.162,17.939 -11.912,19.439 -5.218,-1.718 -48.633,-8.832 -53.865,-9.457 z"
       id="path39"
       style="fill:#00ff5b;stroke:#000000;stroke-width:2;stroke-miterlimit:10" /><path
       d="m 675.58,693.472 1.562,-1.445 2.104,-1.064 c 0,0 4.951,-1.622 5.886,-0.513 -0.917,-1.682 -2.964,-2.508 -4.974,-2.983 -3.755,-0.887 -7.52,1.438 -8.406,5.193 -0.527,2.235 0.527,3.998 1.902,5.632 -0.8,-1.463 1.926,-4.82 1.926,-4.82 z"
       id="path41"
       style="fill:#ffffff" /><path
       d="m 668.821,713.639 1.562,-1.445 2.104,-1.064 c 0,0 4.951,-1.622 5.886,-0.513 -0.917,-1.682 -2.964,-2.508 -4.974,-2.983 -3.755,-0.887 -7.52,1.438 -8.406,5.193 -0.527,2.235 0.527,3.998 1.902,5.632 -0.799,-1.463 1.926,-4.82 1.926,-4.82 z"
       id="path43"
       style="fill:#ffffff" /><path
       d="m 102.255,754.428 1.683,1.229 1.963,1.312 c 0,0 12.119,8.078 11.412,9.345 1.248,-1.453 -5.125,-8.375 -6.938,-10 -2.875,-3.5 -5.085,-6.821 -9.062,-8.125 -2.277,0.299 -10.584,-4.989 -11.625,-3.125 1.083,-1.267 12.567,9.364 12.567,9.364 z"
       id="path45"
       style="fill:#ffffff" /><path
       d="m 165.553,725.31 1.264,1.201 1.488,1.298 c 0,0 9.186,8.004 8.463,8.979 1.191,-1.071 -3.352,-7.498 -4.682,-9.041 -2.009,-3.212 -3.485,-6.206 -6.646,-7.714 -1.921,0.002 -8.245,-5.277 -9.309,-3.843 1.036,-0.934 9.422,9.12 9.422,9.12 z"
       id="path47"
       style="fill:#ffffff" /><path
       d="m 183.626,753.951 0.786,1.389 0.955,1.535 c 0,0 5.903,9.465 5.011,10.126 1.329,-0.62 -0.931,-7.463 -1.682,-9.17 -0.9,-3.35 -1.393,-6.366 -3.757,-8.531 -1.682,-0.513 -5.809,-6.827 -7.123,-5.855 1.157,-0.542 5.81,10.506 5.81,10.506 z"
       id="path49"
       style="fill:#ffffff" /><path
       d="m 230.967,737.641 0.343,1.345 0.451,1.505 c 0,0 2.792,9.286 1.894,9.637 1.256,-0.217 0.922,-6.473 0.681,-8.076 0.009,-3.014 0.284,-5.656 -1.205,-8.013 -1.294,-0.812 -3.315,-7.052 -4.64,-6.536 1.093,-0.191 2.476,10.138 2.476,10.138 z"
       id="path51"
       style="fill:#ffffff" /><path
       d="m 280.049,725.771 0.291,1.082 0.381,1.211 c 0,0 2.358,7.477 1.63,7.75 1.021,-0.163 0.691,-5.186 0.481,-6.474 -0.021,-2.418 0.18,-4.536 -1.055,-6.44 -1.062,-0.664 -2.764,-5.688 -3.837,-5.286 0.888,-0.143 2.109,8.157 2.109,8.157 z"
       id="path53"
       style="fill:#ffffff" /><path
       d="m 270.942,703.633 0.415,1.041 0.521,1.157 c 0,0 3.216,7.15 2.524,7.507 0.995,-0.281 0.08,-5.23 -0.279,-6.485 -0.303,-2.399 -0.352,-4.526 -1.8,-6.273 -1.132,-0.535 -3.409,-5.325 -4.429,-4.801 0.867,-0.247 3.048,7.854 3.048,7.854 z"
       id="path55"
       style="fill:#ffffff" /><path
       d="m 315.021,697.753 0.292,0.729 0.363,0.812 c 0,0 2.254,5.012 1.77,5.261 0.697,-0.197 0.057,-3.665 -0.195,-4.545 -0.213,-1.682 -0.246,-3.172 -1.262,-4.396 -0.793,-0.375 -2.389,-3.732 -3.104,-3.365 0.607,-0.173 2.136,5.504 2.136,5.504 z"
       id="path57"
       style="fill:#ffffff" /><path
       d="m 320.952,716.93 0.159,0.77 0.216,0.862 c 0,0 1.339,5.329 0.818,5.489 0.722,-0.071 0.699,-3.598 0.605,-4.508 0.086,-1.693 0.313,-3.166 -0.471,-4.55 -0.714,-0.509 -1.696,-4.094 -2.464,-3.858 0.628,-0.063 1.137,5.795 1.137,5.795 z"
       id="path59"
       style="fill:#ffffff" /><path
       d="m 343.114,713.776 0.159,0.77 0.216,0.862 c 0,0 1.339,5.329 0.818,5.489 0.722,-0.071 0.699,-3.598 0.605,-4.508 0.086,-1.693 0.313,-3.166 -0.471,-4.55 -0.714,-0.509 -1.696,-4.094 -2.464,-3.858 0.628,-0.062 1.137,5.795 1.137,5.795 z"
       id="path61"
       style="fill:#ffffff" /><path
       d="m 223.882,711.477 0.567,1.003 0.689,1.108 c 0,0 4.262,6.832 3.617,7.31 0.961,-0.447 -0.671,-5.388 -1.213,-6.62 -0.65,-2.418 -1.006,-4.596 -2.713,-6.158 -1.214,-0.37 -4.193,-4.929 -5.143,-4.228 0.836,-0.391 4.196,7.585 4.196,7.585 z"
       id="path63"
       style="fill:#ffffff" /><path
       d="m 334.594,693.341 1.215,0.907 1.02,1.334 c 0,0 1.779,3.262 1.123,4.059 1.06,-0.86 1.373,-2.403 1.444,-3.874 0.134,-2.746 -1.983,-5.081 -4.731,-5.215 -1.634,-0.079 -2.732,0.891 -3.699,2.063 0.921,-0.746 3.628,0.726 3.628,0.726 z"
       id="path65"
       style="fill:#ffffff" /><path
       d="m 411.047,635.843 c 0,0 -43.877,2.255 -35.07,20.166 8.807,17.911 22.021,89.874 22.021,89.874 0,0 -9.527,-99.144 13.049,-110.04 z"
       id="path67"
       style="fill:#ffffff" /></g></svg>
